<?xml version="1.0" encoding="utf-8"?>
<svg viewBox="0 0 500 500" xmlns="http://www.w3.org/2000/svg">
  <path style="stroke: rgb(0, 0, 0); fill: rgb(130, 225, 179);" d="M 280.927 42.953 C 149.455 95.6 122.643 461.263 243.316 376.948 C 252.77 370.343 313.059 205.43 301.512 120.961 C 287.405 117.669 274.877 45.232 280.927 42.953 Z"/>
  <path style="stroke: rgb(0, 0, 0); fill: rgb(130, 225, 179);" d="M 232.308 383.344 C 207.388 401.619 189.595 462.032 201.504 475.634 C 204.434 482.989 186.44 476.283 185.784 474.635 C 178.871 465.693 195.067 401.534 203.207 388.124"/>
  <path style="stroke: rgb(0, 0, 0); fill: rgb(130, 225, 179);" d="M 190.409 476.301 C 185.318 464.528 202.572 406.792 210.494 394.635"/>
  <path style="stroke: rgb(0, 0, 0); fill: rgb(130, 225, 179);" d="M 223.338 336.383 C 233.852 145.869 243.71 102.216 280.199 44.425"/>
  <path style="stroke: rgb(0, 0, 0); fill: rgb(130, 225, 179);" d="M 209.803 395.692 C 225.582 349.076 219.399 360.01 224.094 334.925"/>
</svg>