<?xml version="1.0" standalone="no"?>
<!DOCTYPE svg PUBLIC "-//W3C//DTD SVG 20010904//EN"
 "http://www.w3.org/TR/2001/REC-SVG-20010904/DTD/svg10.dtd">
<svg version="1.0" xmlns="http://www.w3.org/2000/svg"
 width="512.000000pt" height="512.000000pt" viewBox="0 0 512.000000 512.000000"
 preserveAspectRatio="xMidYMid meet">

<g transform="translate(0.000000,512.000000) scale(0.100000,-0.100000)"
fill="#000000" stroke="none">
<path d="M2470 5097 c-31 -13 -105 -49 -165 -81 -1019 -537 -1655 -1343 -1826
-2312 -27 -153 -37 -485 -20 -646 64 -600 368 -1074 796 -1244 342 -136 720
-80 1116 166 l78 49 3 -484 3 -483 24 -26 c32 -34 80 -42 119 -22 58 30 57 20
60 543 l3 482 62 -44 c166 -116 409 -218 597 -251 123 -21 310 -14 430 16 242
60 476 231 634 463 281 414 369 1044 230 1651 -209 918 -885 1705 -1877 2187
-132 64 -184 71 -267 36z m548 -421 c374 -231 707 -538 949 -871 364 -504 548
-1108 504 -1660 -39 -480 -209 -845 -495 -1060 -69 -51 -150 -90 -253 -122
-77 -23 -105 -26 -223 -26 -112 0 -151 5 -230 25 -169 45 -375 152 -545 283
l-64 50 -1 101 0 102 644 356 c354 197 654 368 667 382 37 39 33 98 -9 135
-21 19 -43 29 -63 29 -22 0 -194 -90 -593 -311 -308 -172 -580 -323 -603 -336
l-43 -25 0 395 0 394 403 256 c221 141 411 265 422 277 13 14 20 36 20 62 0
33 -6 45 -33 69 -59 53 -64 51 -443 -189 -189 -120 -350 -221 -356 -226 -10
-6 -13 73 -13 382 l0 389 253 183 c311 225 317 231 317 285 0 52 -21 82 -69
96 -49 15 -60 9 -254 -133 -84 -61 -173 -126 -199 -145 l-48 -35 0 542 0 542
133 -70 c74 -38 175 -95 225 -126z m-572 -873 c-2 -2 -96 63 -210 146 -113 82
-219 152 -235 156 -69 15 -134 -61 -111 -131 10 -28 54 -64 285 -231 l274
-198 0 -387 c1 -214 -2 -388 -5 -388 -3 0 -157 96 -342 214 -186 117 -348 216
-360 221 -43 13 -91 -3 -112 -38 -28 -45 -25 -81 8 -117 15 -17 203 -142 417
-278 l390 -247 3 -394 c2 -313 0 -392 -10 -388 -7 2 -274 149 -593 326 -319
177 -592 325 -607 328 -81 16 -144 -73 -104 -147 10 -18 198 -127 662 -386
l649 -360 3 -111 3 -111 -52 -38 c-420 -308 -802 -379 -1139 -209 -391 197
-630 727 -607 1344 13 346 93 661 252 989 92 190 153 291 268 446 298 400 678
723 1147 977 l125 68 3 -526 c1 -289 0 -528 -2 -530z"/>
</g>
</svg>
